<mxfile host="Electron" modified="2024-03-02T23:37:02.633Z" agent="Mozilla/5.0 (Windows NT 10.0; Win64; x64) AppleWebKit/537.36 (KHTML, like Gecko) draw.io/23.1.5 Chrome/120.0.6099.109 Electron/28.1.0 Safari/537.36" etag="l6vB_72S88hH9f3SinZ1" version="23.1.5" type="device">
  <diagram name="Страница — 1" id="BcJl0jxx0AWxooKBRJxS">
    <mxGraphModel dx="1247" dy="727" grid="1" gridSize="10" guides="1" tooltips="1" connect="1" arrows="1" fold="1" page="1" pageScale="1" pageWidth="827" pageHeight="1169" math="0" shadow="0">
      <root>
        <mxCell id="0" />
        <mxCell id="1" parent="0" />
        <mxCell id="uhYlo409w26lAjEbPdIC-16" value="Фильм" style="shape=table;startSize=30;container=1;collapsible=1;childLayout=tableLayout;fixedRows=1;rowLines=0;fontStyle=1;align=center;resizeLast=1;html=1;rounded=0;" vertex="1" parent="1">
          <mxGeometry x="450" y="320" width="280" height="300" as="geometry" />
        </mxCell>
        <mxCell id="uhYlo409w26lAjEbPdIC-17" value="" style="shape=tableRow;horizontal=0;startSize=0;swimlaneHead=0;swimlaneBody=0;fillColor=none;collapsible=0;dropTarget=0;points=[[0,0.5],[1,0.5]];portConstraint=eastwest;top=0;left=0;right=0;bottom=1;rounded=1;" vertex="1" parent="uhYlo409w26lAjEbPdIC-16">
          <mxGeometry y="30" width="280" height="30" as="geometry" />
        </mxCell>
        <mxCell id="uhYlo409w26lAjEbPdIC-18" value="PK" style="shape=partialRectangle;connectable=0;fillColor=none;top=0;left=0;bottom=0;right=0;fontStyle=1;overflow=hidden;whiteSpace=wrap;html=1;rounded=1;" vertex="1" parent="uhYlo409w26lAjEbPdIC-17">
          <mxGeometry width="100" height="30" as="geometry">
            <mxRectangle width="100" height="30" as="alternateBounds" />
          </mxGeometry>
        </mxCell>
        <mxCell id="uhYlo409w26lAjEbPdIC-19" value="id_фильм" style="shape=partialRectangle;connectable=0;fillColor=none;top=0;left=0;bottom=0;right=0;align=left;spacingLeft=6;fontStyle=5;overflow=hidden;whiteSpace=wrap;html=1;rounded=1;" vertex="1" parent="uhYlo409w26lAjEbPdIC-17">
          <mxGeometry x="100" width="180" height="30" as="geometry">
            <mxRectangle width="180" height="30" as="alternateBounds" />
          </mxGeometry>
        </mxCell>
        <mxCell id="uhYlo409w26lAjEbPdIC-20" value="" style="shape=tableRow;horizontal=0;startSize=0;swimlaneHead=0;swimlaneBody=0;fillColor=none;collapsible=0;dropTarget=0;points=[[0,0.5],[1,0.5]];portConstraint=eastwest;top=0;left=0;right=0;bottom=0;rounded=1;" vertex="1" parent="uhYlo409w26lAjEbPdIC-16">
          <mxGeometry y="60" width="280" height="30" as="geometry" />
        </mxCell>
        <mxCell id="uhYlo409w26lAjEbPdIC-21" value="String" style="shape=partialRectangle;connectable=0;fillColor=none;top=0;left=0;bottom=0;right=0;editable=1;overflow=hidden;whiteSpace=wrap;html=1;rounded=1;" vertex="1" parent="uhYlo409w26lAjEbPdIC-20">
          <mxGeometry width="100" height="30" as="geometry">
            <mxRectangle width="100" height="30" as="alternateBounds" />
          </mxGeometry>
        </mxCell>
        <mxCell id="uhYlo409w26lAjEbPdIC-22" value="Название" style="shape=partialRectangle;connectable=0;fillColor=none;top=0;left=0;bottom=0;right=0;align=left;spacingLeft=6;overflow=hidden;whiteSpace=wrap;html=1;rounded=1;" vertex="1" parent="uhYlo409w26lAjEbPdIC-20">
          <mxGeometry x="100" width="180" height="30" as="geometry">
            <mxRectangle width="180" height="30" as="alternateBounds" />
          </mxGeometry>
        </mxCell>
        <mxCell id="uhYlo409w26lAjEbPdIC-23" value="" style="shape=tableRow;horizontal=0;startSize=0;swimlaneHead=0;swimlaneBody=0;fillColor=none;collapsible=0;dropTarget=0;points=[[0,0.5],[1,0.5]];portConstraint=eastwest;top=0;left=0;right=0;bottom=0;rounded=1;" vertex="1" parent="uhYlo409w26lAjEbPdIC-16">
          <mxGeometry y="90" width="280" height="30" as="geometry" />
        </mxCell>
        <mxCell id="uhYlo409w26lAjEbPdIC-24" value="String" style="shape=partialRectangle;connectable=0;fillColor=none;top=0;left=0;bottom=0;right=0;editable=1;overflow=hidden;whiteSpace=wrap;html=1;rounded=1;" vertex="1" parent="uhYlo409w26lAjEbPdIC-23">
          <mxGeometry width="100" height="30" as="geometry">
            <mxRectangle width="100" height="30" as="alternateBounds" />
          </mxGeometry>
        </mxCell>
        <mxCell id="uhYlo409w26lAjEbPdIC-25" value="Описание" style="shape=partialRectangle;connectable=0;fillColor=none;top=0;left=0;bottom=0;right=0;align=left;spacingLeft=6;overflow=hidden;whiteSpace=wrap;html=1;rounded=1;" vertex="1" parent="uhYlo409w26lAjEbPdIC-23">
          <mxGeometry x="100" width="180" height="30" as="geometry">
            <mxRectangle width="180" height="30" as="alternateBounds" />
          </mxGeometry>
        </mxCell>
        <mxCell id="uhYlo409w26lAjEbPdIC-26" value="" style="shape=tableRow;horizontal=0;startSize=0;swimlaneHead=0;swimlaneBody=0;fillColor=none;collapsible=0;dropTarget=0;points=[[0,0.5],[1,0.5]];portConstraint=eastwest;top=0;left=0;right=0;bottom=0;rounded=1;" vertex="1" parent="uhYlo409w26lAjEbPdIC-16">
          <mxGeometry y="120" width="280" height="30" as="geometry" />
        </mxCell>
        <mxCell id="uhYlo409w26lAjEbPdIC-27" value="&lt;b&gt;FK&lt;/b&gt;" style="shape=partialRectangle;connectable=0;fillColor=none;top=0;left=0;bottom=0;right=0;editable=1;overflow=hidden;whiteSpace=wrap;html=1;rounded=1;" vertex="1" parent="uhYlo409w26lAjEbPdIC-26">
          <mxGeometry width="100" height="30" as="geometry">
            <mxRectangle width="100" height="30" as="alternateBounds" />
          </mxGeometry>
        </mxCell>
        <mxCell id="uhYlo409w26lAjEbPdIC-28" value="&lt;b&gt;id_режиссёр&lt;/b&gt;" style="shape=partialRectangle;connectable=0;fillColor=none;top=0;left=0;bottom=0;right=0;align=left;spacingLeft=6;overflow=hidden;whiteSpace=wrap;html=1;rounded=1;" vertex="1" parent="uhYlo409w26lAjEbPdIC-26">
          <mxGeometry x="100" width="180" height="30" as="geometry">
            <mxRectangle width="180" height="30" as="alternateBounds" />
          </mxGeometry>
        </mxCell>
        <mxCell id="uhYlo409w26lAjEbPdIC-32" value="" style="shape=tableRow;horizontal=0;startSize=0;swimlaneHead=0;swimlaneBody=0;fillColor=none;collapsible=0;dropTarget=0;points=[[0,0.5],[1,0.5]];portConstraint=eastwest;top=0;left=0;right=0;bottom=0;rounded=1;" vertex="1" parent="uhYlo409w26lAjEbPdIC-16">
          <mxGeometry y="150" width="280" height="30" as="geometry" />
        </mxCell>
        <mxCell id="uhYlo409w26lAjEbPdIC-33" value="&lt;b style=&quot;border-color: var(--border-color);&quot;&gt;FK&lt;/b&gt;" style="shape=partialRectangle;connectable=0;fillColor=none;top=0;left=0;bottom=0;right=0;editable=1;overflow=hidden;whiteSpace=wrap;html=1;rounded=1;" vertex="1" parent="uhYlo409w26lAjEbPdIC-32">
          <mxGeometry width="100" height="30" as="geometry">
            <mxRectangle width="100" height="30" as="alternateBounds" />
          </mxGeometry>
        </mxCell>
        <mxCell id="uhYlo409w26lAjEbPdIC-34" value="id_актёры" style="shape=partialRectangle;connectable=0;fillColor=none;top=0;left=0;bottom=0;right=0;align=left;spacingLeft=6;overflow=hidden;whiteSpace=wrap;html=1;rounded=1;fontStyle=1" vertex="1" parent="uhYlo409w26lAjEbPdIC-32">
          <mxGeometry x="100" width="180" height="30" as="geometry">
            <mxRectangle width="180" height="30" as="alternateBounds" />
          </mxGeometry>
        </mxCell>
        <mxCell id="uhYlo409w26lAjEbPdIC-35" value="" style="shape=tableRow;horizontal=0;startSize=0;swimlaneHead=0;swimlaneBody=0;fillColor=none;collapsible=0;dropTarget=0;points=[[0,0.5],[1,0.5]];portConstraint=eastwest;top=0;left=0;right=0;bottom=0;rounded=1;" vertex="1" parent="uhYlo409w26lAjEbPdIC-16">
          <mxGeometry y="180" width="280" height="30" as="geometry" />
        </mxCell>
        <mxCell id="uhYlo409w26lAjEbPdIC-36" value="int" style="shape=partialRectangle;connectable=0;fillColor=none;top=0;left=0;bottom=0;right=0;editable=1;overflow=hidden;whiteSpace=wrap;html=1;rounded=1;" vertex="1" parent="uhYlo409w26lAjEbPdIC-35">
          <mxGeometry width="100" height="30" as="geometry">
            <mxRectangle width="100" height="30" as="alternateBounds" />
          </mxGeometry>
        </mxCell>
        <mxCell id="uhYlo409w26lAjEbPdIC-37" value="Дата выхода" style="shape=partialRectangle;connectable=0;fillColor=none;top=0;left=0;bottom=0;right=0;align=left;spacingLeft=6;overflow=hidden;whiteSpace=wrap;html=1;rounded=1;" vertex="1" parent="uhYlo409w26lAjEbPdIC-35">
          <mxGeometry x="100" width="180" height="30" as="geometry">
            <mxRectangle width="180" height="30" as="alternateBounds" />
          </mxGeometry>
        </mxCell>
        <mxCell id="uhYlo409w26lAjEbPdIC-38" value="" style="shape=tableRow;horizontal=0;startSize=0;swimlaneHead=0;swimlaneBody=0;fillColor=none;collapsible=0;dropTarget=0;points=[[0,0.5],[1,0.5]];portConstraint=eastwest;top=0;left=0;right=0;bottom=0;rounded=1;" vertex="1" parent="uhYlo409w26lAjEbPdIC-16">
          <mxGeometry y="210" width="280" height="30" as="geometry" />
        </mxCell>
        <mxCell id="uhYlo409w26lAjEbPdIC-39" value="int" style="shape=partialRectangle;connectable=0;fillColor=none;top=0;left=0;bottom=0;right=0;editable=1;overflow=hidden;whiteSpace=wrap;html=1;rounded=1;" vertex="1" parent="uhYlo409w26lAjEbPdIC-38">
          <mxGeometry width="100" height="30" as="geometry">
            <mxRectangle width="100" height="30" as="alternateBounds" />
          </mxGeometry>
        </mxCell>
        <mxCell id="uhYlo409w26lAjEbPdIC-40" value="Дата начала показа" style="shape=partialRectangle;connectable=0;fillColor=none;top=0;left=0;bottom=0;right=0;align=left;spacingLeft=6;overflow=hidden;whiteSpace=wrap;html=1;rounded=1;" vertex="1" parent="uhYlo409w26lAjEbPdIC-38">
          <mxGeometry x="100" width="180" height="30" as="geometry">
            <mxRectangle width="180" height="30" as="alternateBounds" />
          </mxGeometry>
        </mxCell>
        <mxCell id="uhYlo409w26lAjEbPdIC-41" value="" style="shape=tableRow;horizontal=0;startSize=0;swimlaneHead=0;swimlaneBody=0;fillColor=none;collapsible=0;dropTarget=0;points=[[0,0.5],[1,0.5]];portConstraint=eastwest;top=0;left=0;right=0;bottom=0;rounded=1;" vertex="1" parent="uhYlo409w26lAjEbPdIC-16">
          <mxGeometry y="240" width="280" height="30" as="geometry" />
        </mxCell>
        <mxCell id="uhYlo409w26lAjEbPdIC-42" value="int" style="shape=partialRectangle;connectable=0;fillColor=none;top=0;left=0;bottom=0;right=0;editable=1;overflow=hidden;whiteSpace=wrap;html=1;rounded=1;" vertex="1" parent="uhYlo409w26lAjEbPdIC-41">
          <mxGeometry width="100" height="30" as="geometry">
            <mxRectangle width="100" height="30" as="alternateBounds" />
          </mxGeometry>
        </mxCell>
        <mxCell id="uhYlo409w26lAjEbPdIC-43" value="Дата конца показа" style="shape=partialRectangle;connectable=0;fillColor=none;top=0;left=0;bottom=0;right=0;align=left;spacingLeft=6;overflow=hidden;whiteSpace=wrap;html=1;rounded=1;" vertex="1" parent="uhYlo409w26lAjEbPdIC-41">
          <mxGeometry x="100" width="180" height="30" as="geometry">
            <mxRectangle width="180" height="30" as="alternateBounds" />
          </mxGeometry>
        </mxCell>
        <mxCell id="uhYlo409w26lAjEbPdIC-44" value="" style="shape=tableRow;horizontal=0;startSize=0;swimlaneHead=0;swimlaneBody=0;fillColor=none;collapsible=0;dropTarget=0;points=[[0,0.5],[1,0.5]];portConstraint=eastwest;top=0;left=0;right=0;bottom=0;rounded=1;" vertex="1" parent="uhYlo409w26lAjEbPdIC-16">
          <mxGeometry y="270" width="280" height="30" as="geometry" />
        </mxCell>
        <mxCell id="uhYlo409w26lAjEbPdIC-45" value="bool" style="shape=partialRectangle;connectable=0;fillColor=none;top=0;left=0;bottom=0;right=0;editable=1;overflow=hidden;whiteSpace=wrap;html=1;rounded=1;" vertex="1" parent="uhYlo409w26lAjEbPdIC-44">
          <mxGeometry width="100" height="30" as="geometry">
            <mxRectangle width="100" height="30" as="alternateBounds" />
          </mxGeometry>
        </mxCell>
        <mxCell id="uhYlo409w26lAjEbPdIC-46" value="3D" style="shape=partialRectangle;connectable=0;fillColor=none;top=0;left=0;bottom=0;right=0;align=left;spacingLeft=6;overflow=hidden;whiteSpace=wrap;html=1;rounded=1;" vertex="1" parent="uhYlo409w26lAjEbPdIC-44">
          <mxGeometry x="100" width="180" height="30" as="geometry">
            <mxRectangle width="180" height="30" as="alternateBounds" />
          </mxGeometry>
        </mxCell>
        <mxCell id="uhYlo409w26lAjEbPdIC-75" value="Кинотеатр" style="shape=table;startSize=30;container=1;collapsible=1;childLayout=tableLayout;fixedRows=1;rowLines=0;fontStyle=1;align=center;resizeLast=1;html=1;rounded=0;" vertex="1" parent="1">
          <mxGeometry x="450" y="80" width="280" height="210" as="geometry" />
        </mxCell>
        <mxCell id="uhYlo409w26lAjEbPdIC-76" value="" style="shape=tableRow;horizontal=0;startSize=0;swimlaneHead=0;swimlaneBody=0;fillColor=none;collapsible=0;dropTarget=0;points=[[0,0.5],[1,0.5]];portConstraint=eastwest;top=0;left=0;right=0;bottom=1;rounded=1;" vertex="1" parent="uhYlo409w26lAjEbPdIC-75">
          <mxGeometry y="30" width="280" height="30" as="geometry" />
        </mxCell>
        <mxCell id="uhYlo409w26lAjEbPdIC-77" value="PK" style="shape=partialRectangle;connectable=0;fillColor=none;top=0;left=0;bottom=0;right=0;fontStyle=1;overflow=hidden;whiteSpace=wrap;html=1;rounded=1;" vertex="1" parent="uhYlo409w26lAjEbPdIC-76">
          <mxGeometry width="100" height="30" as="geometry">
            <mxRectangle width="100" height="30" as="alternateBounds" />
          </mxGeometry>
        </mxCell>
        <mxCell id="uhYlo409w26lAjEbPdIC-78" value="id_кинотеатр" style="shape=partialRectangle;connectable=0;fillColor=none;top=0;left=0;bottom=0;right=0;align=left;spacingLeft=6;fontStyle=5;overflow=hidden;whiteSpace=wrap;html=1;rounded=1;" vertex="1" parent="uhYlo409w26lAjEbPdIC-76">
          <mxGeometry x="100" width="180" height="30" as="geometry">
            <mxRectangle width="180" height="30" as="alternateBounds" />
          </mxGeometry>
        </mxCell>
        <mxCell id="uhYlo409w26lAjEbPdIC-79" value="" style="shape=tableRow;horizontal=0;startSize=0;swimlaneHead=0;swimlaneBody=0;fillColor=none;collapsible=0;dropTarget=0;points=[[0,0.5],[1,0.5]];portConstraint=eastwest;top=0;left=0;right=0;bottom=0;rounded=1;" vertex="1" parent="uhYlo409w26lAjEbPdIC-75">
          <mxGeometry y="60" width="280" height="30" as="geometry" />
        </mxCell>
        <mxCell id="uhYlo409w26lAjEbPdIC-80" value="String" style="shape=partialRectangle;connectable=0;fillColor=none;top=0;left=0;bottom=0;right=0;editable=1;overflow=hidden;whiteSpace=wrap;html=1;rounded=1;" vertex="1" parent="uhYlo409w26lAjEbPdIC-79">
          <mxGeometry width="100" height="30" as="geometry">
            <mxRectangle width="100" height="30" as="alternateBounds" />
          </mxGeometry>
        </mxCell>
        <mxCell id="uhYlo409w26lAjEbPdIC-81" value="Название" style="shape=partialRectangle;connectable=0;fillColor=none;top=0;left=0;bottom=0;right=0;align=left;spacingLeft=6;overflow=hidden;whiteSpace=wrap;html=1;rounded=1;" vertex="1" parent="uhYlo409w26lAjEbPdIC-79">
          <mxGeometry x="100" width="180" height="30" as="geometry">
            <mxRectangle width="180" height="30" as="alternateBounds" />
          </mxGeometry>
        </mxCell>
        <mxCell id="uhYlo409w26lAjEbPdIC-82" value="" style="shape=tableRow;horizontal=0;startSize=0;swimlaneHead=0;swimlaneBody=0;fillColor=none;collapsible=0;dropTarget=0;points=[[0,0.5],[1,0.5]];portConstraint=eastwest;top=0;left=0;right=0;bottom=0;rounded=1;" vertex="1" parent="uhYlo409w26lAjEbPdIC-75">
          <mxGeometry y="90" width="280" height="30" as="geometry" />
        </mxCell>
        <mxCell id="uhYlo409w26lAjEbPdIC-83" value="&lt;b style=&quot;border-color: var(--border-color);&quot;&gt;FK&lt;/b&gt;" style="shape=partialRectangle;connectable=0;fillColor=none;top=0;left=0;bottom=0;right=0;editable=1;overflow=hidden;whiteSpace=wrap;html=1;rounded=1;" vertex="1" parent="uhYlo409w26lAjEbPdIC-82">
          <mxGeometry width="100" height="30" as="geometry">
            <mxRectangle width="100" height="30" as="alternateBounds" />
          </mxGeometry>
        </mxCell>
        <mxCell id="uhYlo409w26lAjEbPdIC-84" value="Адрес" style="shape=partialRectangle;connectable=0;fillColor=none;top=0;left=0;bottom=0;right=0;align=left;spacingLeft=6;overflow=hidden;whiteSpace=wrap;html=1;rounded=1;" vertex="1" parent="uhYlo409w26lAjEbPdIC-82">
          <mxGeometry x="100" width="180" height="30" as="geometry">
            <mxRectangle width="180" height="30" as="alternateBounds" />
          </mxGeometry>
        </mxCell>
        <mxCell id="uhYlo409w26lAjEbPdIC-85" value="" style="shape=tableRow;horizontal=0;startSize=0;swimlaneHead=0;swimlaneBody=0;fillColor=none;collapsible=0;dropTarget=0;points=[[0,0.5],[1,0.5]];portConstraint=eastwest;top=0;left=0;right=0;bottom=0;rounded=1;" vertex="1" parent="uhYlo409w26lAjEbPdIC-75">
          <mxGeometry y="120" width="280" height="30" as="geometry" />
        </mxCell>
        <mxCell id="uhYlo409w26lAjEbPdIC-86" value="DateTime" style="shape=partialRectangle;connectable=0;fillColor=none;top=0;left=0;bottom=0;right=0;editable=1;overflow=hidden;whiteSpace=wrap;html=1;rounded=1;" vertex="1" parent="uhYlo409w26lAjEbPdIC-85">
          <mxGeometry width="100" height="30" as="geometry">
            <mxRectangle width="100" height="30" as="alternateBounds" />
          </mxGeometry>
        </mxCell>
        <mxCell id="uhYlo409w26lAjEbPdIC-87" value="Время работы" style="shape=partialRectangle;connectable=0;fillColor=none;top=0;left=0;bottom=0;right=0;align=left;spacingLeft=6;overflow=hidden;whiteSpace=wrap;html=1;rounded=1;" vertex="1" parent="uhYlo409w26lAjEbPdIC-85">
          <mxGeometry x="100" width="180" height="30" as="geometry">
            <mxRectangle width="180" height="30" as="alternateBounds" />
          </mxGeometry>
        </mxCell>
        <mxCell id="uhYlo409w26lAjEbPdIC-88" value="" style="shape=tableRow;horizontal=0;startSize=0;swimlaneHead=0;swimlaneBody=0;fillColor=none;collapsible=0;dropTarget=0;points=[[0,0.5],[1,0.5]];portConstraint=eastwest;top=0;left=0;right=0;bottom=0;rounded=1;" vertex="1" parent="uhYlo409w26lAjEbPdIC-75">
          <mxGeometry y="150" width="280" height="30" as="geometry" />
        </mxCell>
        <mxCell id="uhYlo409w26lAjEbPdIC-89" value="int" style="shape=partialRectangle;connectable=0;fillColor=none;top=0;left=0;bottom=0;right=0;editable=1;overflow=hidden;whiteSpace=wrap;html=1;rounded=1;" vertex="1" parent="uhYlo409w26lAjEbPdIC-88">
          <mxGeometry width="100" height="30" as="geometry">
            <mxRectangle width="100" height="30" as="alternateBounds" />
          </mxGeometry>
        </mxCell>
        <mxCell id="uhYlo409w26lAjEbPdIC-90" value="Количество мест" style="shape=partialRectangle;connectable=0;fillColor=none;top=0;left=0;bottom=0;right=0;align=left;spacingLeft=6;overflow=hidden;whiteSpace=wrap;html=1;rounded=1;" vertex="1" parent="uhYlo409w26lAjEbPdIC-88">
          <mxGeometry x="100" width="180" height="30" as="geometry">
            <mxRectangle width="180" height="30" as="alternateBounds" />
          </mxGeometry>
        </mxCell>
        <mxCell id="uhYlo409w26lAjEbPdIC-105" value="" style="shape=tableRow;horizontal=0;startSize=0;swimlaneHead=0;swimlaneBody=0;fillColor=none;collapsible=0;dropTarget=0;points=[[0,0.5],[1,0.5]];portConstraint=eastwest;top=0;left=0;right=0;bottom=0;rounded=1;" vertex="1" parent="uhYlo409w26lAjEbPdIC-75">
          <mxGeometry y="180" width="280" height="30" as="geometry" />
        </mxCell>
        <mxCell id="uhYlo409w26lAjEbPdIC-106" value="&lt;b style=&quot;border-color: var(--border-color);&quot;&gt;FK&lt;/b&gt;" style="shape=partialRectangle;connectable=0;fillColor=none;top=0;left=0;bottom=0;right=0;editable=1;overflow=hidden;whiteSpace=wrap;html=1;rounded=1;" vertex="1" parent="uhYlo409w26lAjEbPdIC-105">
          <mxGeometry width="100" height="30" as="geometry">
            <mxRectangle width="100" height="30" as="alternateBounds" />
          </mxGeometry>
        </mxCell>
        <mxCell id="uhYlo409w26lAjEbPdIC-107" value="Фильм" style="shape=partialRectangle;connectable=0;fillColor=none;top=0;left=0;bottom=0;right=0;align=left;spacingLeft=6;overflow=hidden;whiteSpace=wrap;html=1;rounded=1;" vertex="1" parent="uhYlo409w26lAjEbPdIC-105">
          <mxGeometry x="100" width="180" height="30" as="geometry">
            <mxRectangle width="180" height="30" as="alternateBounds" />
          </mxGeometry>
        </mxCell>
        <mxCell id="uhYlo409w26lAjEbPdIC-91" value="Прокат фильмов" style="shape=table;startSize=30;container=1;collapsible=1;childLayout=tableLayout;fixedRows=1;rowLines=0;fontStyle=1;align=center;resizeLast=1;html=1;whiteSpace=wrap;rounded=1;" vertex="1" parent="1">
          <mxGeometry x="870" y="30" width="180" height="150" as="geometry" />
        </mxCell>
        <mxCell id="uhYlo409w26lAjEbPdIC-92" value="" style="shape=tableRow;horizontal=0;startSize=0;swimlaneHead=0;swimlaneBody=0;fillColor=none;collapsible=0;dropTarget=0;points=[[0,0.5],[1,0.5]];portConstraint=eastwest;top=0;left=0;right=0;bottom=0;html=1;rounded=1;" vertex="1" parent="uhYlo409w26lAjEbPdIC-91">
          <mxGeometry y="30" width="180" height="30" as="geometry" />
        </mxCell>
        <mxCell id="uhYlo409w26lAjEbPdIC-93" value="PK,FK1" style="shape=partialRectangle;connectable=0;fillColor=none;top=0;left=0;bottom=0;right=0;fontStyle=1;overflow=hidden;html=1;whiteSpace=wrap;rounded=1;" vertex="1" parent="uhYlo409w26lAjEbPdIC-92">
          <mxGeometry width="60" height="30" as="geometry">
            <mxRectangle width="60" height="30" as="alternateBounds" />
          </mxGeometry>
        </mxCell>
        <mxCell id="uhYlo409w26lAjEbPdIC-94" value="id_кинотеатр" style="shape=partialRectangle;connectable=0;fillColor=none;top=0;left=0;bottom=0;right=0;align=left;spacingLeft=6;fontStyle=5;overflow=hidden;html=1;whiteSpace=wrap;rounded=1;" vertex="1" parent="uhYlo409w26lAjEbPdIC-92">
          <mxGeometry x="60" width="120" height="30" as="geometry">
            <mxRectangle width="120" height="30" as="alternateBounds" />
          </mxGeometry>
        </mxCell>
        <mxCell id="uhYlo409w26lAjEbPdIC-95" value="" style="shape=tableRow;horizontal=0;startSize=0;swimlaneHead=0;swimlaneBody=0;fillColor=none;collapsible=0;dropTarget=0;points=[[0,0.5],[1,0.5]];portConstraint=eastwest;top=0;left=0;right=0;bottom=1;html=1;rounded=1;" vertex="1" parent="uhYlo409w26lAjEbPdIC-91">
          <mxGeometry y="60" width="180" height="30" as="geometry" />
        </mxCell>
        <mxCell id="uhYlo409w26lAjEbPdIC-96" value="PK,FK2" style="shape=partialRectangle;connectable=0;fillColor=none;top=0;left=0;bottom=0;right=0;fontStyle=1;overflow=hidden;html=1;whiteSpace=wrap;rounded=1;" vertex="1" parent="uhYlo409w26lAjEbPdIC-95">
          <mxGeometry width="60" height="30" as="geometry">
            <mxRectangle width="60" height="30" as="alternateBounds" />
          </mxGeometry>
        </mxCell>
        <mxCell id="uhYlo409w26lAjEbPdIC-97" value="id_фильм" style="shape=partialRectangle;connectable=0;fillColor=none;top=0;left=0;bottom=0;right=0;align=left;spacingLeft=6;fontStyle=5;overflow=hidden;html=1;whiteSpace=wrap;rounded=1;" vertex="1" parent="uhYlo409w26lAjEbPdIC-95">
          <mxGeometry x="60" width="120" height="30" as="geometry">
            <mxRectangle width="120" height="30" as="alternateBounds" />
          </mxGeometry>
        </mxCell>
        <mxCell id="uhYlo409w26lAjEbPdIC-98" value="" style="shape=tableRow;horizontal=0;startSize=0;swimlaneHead=0;swimlaneBody=0;fillColor=none;collapsible=0;dropTarget=0;points=[[0,0.5],[1,0.5]];portConstraint=eastwest;top=0;left=0;right=0;bottom=0;html=1;rounded=1;" vertex="1" parent="uhYlo409w26lAjEbPdIC-91">
          <mxGeometry y="90" width="180" height="30" as="geometry" />
        </mxCell>
        <mxCell id="uhYlo409w26lAjEbPdIC-99" value="" style="shape=partialRectangle;connectable=0;fillColor=none;top=0;left=0;bottom=0;right=0;editable=1;overflow=hidden;html=1;whiteSpace=wrap;rounded=1;" vertex="1" parent="uhYlo409w26lAjEbPdIC-98">
          <mxGeometry width="60" height="30" as="geometry">
            <mxRectangle width="60" height="30" as="alternateBounds" />
          </mxGeometry>
        </mxCell>
        <mxCell id="uhYlo409w26lAjEbPdIC-100" value="Row 3" style="shape=partialRectangle;connectable=0;fillColor=none;top=0;left=0;bottom=0;right=0;align=left;spacingLeft=6;overflow=hidden;html=1;whiteSpace=wrap;rounded=1;" vertex="1" parent="uhYlo409w26lAjEbPdIC-98">
          <mxGeometry x="60" width="120" height="30" as="geometry">
            <mxRectangle width="120" height="30" as="alternateBounds" />
          </mxGeometry>
        </mxCell>
        <mxCell id="uhYlo409w26lAjEbPdIC-101" value="" style="shape=tableRow;horizontal=0;startSize=0;swimlaneHead=0;swimlaneBody=0;fillColor=none;collapsible=0;dropTarget=0;points=[[0,0.5],[1,0.5]];portConstraint=eastwest;top=0;left=0;right=0;bottom=0;html=1;rounded=1;" vertex="1" parent="uhYlo409w26lAjEbPdIC-91">
          <mxGeometry y="120" width="180" height="30" as="geometry" />
        </mxCell>
        <mxCell id="uhYlo409w26lAjEbPdIC-102" value="" style="shape=partialRectangle;connectable=0;fillColor=none;top=0;left=0;bottom=0;right=0;editable=1;overflow=hidden;html=1;whiteSpace=wrap;rounded=1;" vertex="1" parent="uhYlo409w26lAjEbPdIC-101">
          <mxGeometry width="60" height="30" as="geometry">
            <mxRectangle width="60" height="30" as="alternateBounds" />
          </mxGeometry>
        </mxCell>
        <mxCell id="uhYlo409w26lAjEbPdIC-103" value="Row 4" style="shape=partialRectangle;connectable=0;fillColor=none;top=0;left=0;bottom=0;right=0;align=left;spacingLeft=6;overflow=hidden;html=1;whiteSpace=wrap;rounded=1;" vertex="1" parent="uhYlo409w26lAjEbPdIC-101">
          <mxGeometry x="60" width="120" height="30" as="geometry">
            <mxRectangle width="120" height="30" as="alternateBounds" />
          </mxGeometry>
        </mxCell>
        <mxCell id="uhYlo409w26lAjEbPdIC-104" value="" style="edgeStyle=entityRelationEdgeStyle;fontSize=12;html=1;endArrow=ERzeroToMany;startArrow=ERmandOne;rounded=1;entryX=1;entryY=0.5;entryDx=0;entryDy=0;exitX=1;exitY=0.5;exitDx=0;exitDy=0;dashed=1;dashPattern=8 8;" edge="1" parent="1" source="uhYlo409w26lAjEbPdIC-17" target="uhYlo409w26lAjEbPdIC-105">
          <mxGeometry width="100" height="100" relative="1" as="geometry">
            <mxPoint x="340" y="450" as="sourcePoint" />
            <mxPoint x="260" y="370" as="targetPoint" />
            <Array as="points">
              <mxPoint x="400" y="380" />
              <mxPoint x="460" y="360" />
            </Array>
          </mxGeometry>
        </mxCell>
        <mxCell id="uhYlo409w26lAjEbPdIC-109" value="" style="edgeStyle=entityRelationEdgeStyle;fontSize=12;html=1;endArrow=ERzeroToMany;startArrow=ERmandOne;rounded=1;exitX=1.008;exitY=0.099;exitDx=0;exitDy=0;entryX=0;entryY=0.5;entryDx=0;entryDy=0;exitPerimeter=0;" edge="1" parent="1" source="uhYlo409w26lAjEbPdIC-75" target="uhYlo409w26lAjEbPdIC-92">
          <mxGeometry width="100" height="100" relative="1" as="geometry">
            <mxPoint x="770" y="330" as="sourcePoint" />
            <mxPoint x="880" y="330" as="targetPoint" />
          </mxGeometry>
        </mxCell>
        <mxCell id="uhYlo409w26lAjEbPdIC-110" value="" style="edgeStyle=entityRelationEdgeStyle;fontSize=12;html=1;endArrow=ERzeroToMany;startArrow=ERmandOne;rounded=1;exitX=1;exitY=0.5;exitDx=0;exitDy=0;entryX=0;entryY=0.5;entryDx=0;entryDy=0;" edge="1" parent="1" source="uhYlo409w26lAjEbPdIC-17" target="uhYlo409w26lAjEbPdIC-95">
          <mxGeometry width="100" height="100" relative="1" as="geometry">
            <mxPoint x="730" y="346" as="sourcePoint" />
            <mxPoint x="868" y="320" as="targetPoint" />
          </mxGeometry>
        </mxCell>
      </root>
    </mxGraphModel>
  </diagram>
</mxfile>
